<?xml version="1.0" encoding="utf-8"?>
<!-- Generator: Adobe Illustrator 15.0.0, SVG Export Plug-In . SVG Version: 6.00 Build 0)  -->
<!DOCTYPE svg PUBLIC "-//W3C//DTD SVG 1.1//EN" "http://www.w3.org/Graphics/SVG/1.1/DTD/svg11.dtd">
<svg version="1.1" id="Layer_1" xmlns="http://www.w3.org/2000/svg" xmlns:xlink="http://www.w3.org/1999/xlink" x="0px" y="0px"
	 width="258.5px" height="72.5px" viewBox="0 0 258.5 72.5" enable-background="new 0 0 258.5 72.5" xml:space="preserve">
<g>
	<path d="M6.095,0.372l8.148,18.502l7.941-18.502h5.837L15.295,29.559h-1.939L0.216,0.372H6.095z"/>
	<path d="M42.626,0.372l12.728,28.816h-5.879l-2.991-7.013h-12.81l-2.785,7.013h-5.837L36.933,0.372H42.626z M35.365,17.946h9.303
		L39.8,6.539L35.365,17.946z"/>
	<path d="M67.09,0c2.806,0,5.508,0.701,8.106,2.104v4.951c-2.984-1.802-5.631-2.702-7.941-2.702c-1.402,0-2.5,0.271-3.29,0.814
		c-0.791,0.543-1.186,1.269-1.186,2.176c0,1.086,0.735,2.09,2.207,3.012c0.413,0.275,2.001,1.045,4.765,2.311
		c2.365,1.113,4.071,2.351,5.116,3.712c1.045,1.362,1.567,2.998,1.567,4.909c0,2.476-0.891,4.473-2.671,5.993
		s-4.087,2.279-6.92,2.279c-1.843,0-3.427-0.203-4.754-0.608c-1.327-0.406-2.816-1.104-4.466-2.094V21.37
		c3.081,2.558,5.982,3.836,8.705,3.836c1.361,0,2.461-0.296,3.3-0.887c0.839-0.591,1.259-1.375,1.259-2.352
		c0-1.333-0.729-2.42-2.187-3.259c-1.21-0.66-2.771-1.451-4.682-2.372c-2.269-1.031-3.964-2.234-5.085-3.61
		c-1.121-1.375-1.681-2.97-1.681-4.786c0-2.42,0.9-4.349,2.702-5.786C61.755,0.719,64.134,0,67.09,0z"/>
	<path d="M99.929,0.372v4.352H86.872v7.57h12.5v4.353h-12.5v8.189h13.346v4.352H81.303V0.372H99.929z"/>
	<path d="M120.536,0c1.636,0,3.238,0.186,4.806,0.557c1.567,0.372,3.259,1.004,5.074,1.898v5.239
		c-1.774-1.018-3.414-1.753-4.919-2.207s-3.077-0.681-4.714-0.681c-2.049,0-3.898,0.423-5.549,1.269
		c-1.65,0.846-2.932,2.039-3.847,3.579c-0.915,1.54-1.372,3.252-1.372,5.136c0,1.925,0.454,3.651,1.361,5.177
		c0.907,1.526,2.187,2.706,3.837,3.538c1.65,0.832,3.506,1.248,5.569,1.248c1.582,0,3.091-0.227,4.528-0.68
		c1.437-0.454,3.249-1.272,5.436-2.455v5.239c-1.87,0.977-3.589,1.671-5.157,2.083c-1.568,0.412-3.397,0.619-5.487,0.619
		c-3.04,0-5.755-0.605-8.148-1.815c-2.393-1.21-4.273-2.953-5.642-5.229c-1.368-2.276-2.052-4.768-2.052-7.478
		c0-2.901,0.705-5.507,2.114-7.817c1.41-2.311,3.349-4.091,5.817-5.343C114.661,0.625,117.442,0,120.536,0z"/>
	<path d="M159.955,0.372v4.352h-10.23v24.464h-5.571V4.724h-10.23V0.372H159.955z"/>
	<path d="M177.261,0c2.983,0,5.669,0.616,8.055,1.846s4.288,3.004,5.704,5.322c1.417,2.317,2.125,4.858,2.125,7.622
		c0,2.695-0.691,5.194-2.073,7.498c-1.382,2.304-3.279,4.091-5.693,5.363s-5.134,1.908-8.159,1.908
		c-2.984,0-5.696-0.646-8.137-1.939c-2.441-1.292-4.342-3.07-5.704-5.333c-1.361-2.262-2.042-4.761-2.042-7.498
		c0-2.641,0.68-5.123,2.042-7.447c1.362-2.324,3.239-4.128,5.632-5.415C171.402,0.643,174.154,0,177.261,0z M167.092,14.79
		c0,1.912,0.433,3.63,1.3,5.157c0.866,1.526,2.073,2.709,3.62,3.548s3.296,1.258,5.25,1.258c2.957,0,5.387-0.928,7.292-2.785
		c1.904-1.856,2.856-4.249,2.856-7.178c0-1.912-0.43-3.634-1.289-5.167c-0.86-1.533-2.07-2.719-3.63-3.558
		c-1.562-0.839-3.318-1.258-5.271-1.258c-1.953,0-3.71,0.423-5.271,1.269s-2.76,2.028-3.599,3.548
		C167.512,11.142,167.092,12.865,167.092,14.79z"/>
	<path d="M203.376,0.372l9.468,11.365l9.468-11.365h4.971v28.816h-5.57V8.952h-0.165l-8.333,10.148h-0.784l-8.333-10.148h-0.165
		v20.235h-5.57V0.372H203.376z"/>
	<path d="M237.391,0.372l6.972,9.633l7.055-9.633h6.621l-10.891,14.542v14.274h-5.569V14.872l-10.954-14.5H237.391z"/>
</g>
<g>
	<path d="M24.771,43.417L10.975,57.812L26.09,72.234h-2.834L8.166,57.836v14.398H5.938V43.417h2.228v14.336l13.825-14.336H24.771z"
		/>
	<path d="M46.355,43.417v1.856H32.865v11.531h13.14v1.877h-13.14v11.695h13.82v1.856H30.637V43.417H46.355z"/>
	<path d="M53.418,43.417h7.384c3.094,0,5.459,0.67,7.096,2.011c1.636,1.341,2.455,3.153,2.455,5.436
		c0,3.328-1.829,5.666-5.487,7.013c0.949,0.454,2.228,1.918,3.837,4.394l6.518,9.963h-2.637l-5.02-7.898
		c-1.677-2.641-2.983-4.289-3.917-4.941c-0.935-0.654-2.303-0.981-4.104-0.981h-3.897v13.82h-2.228V43.417z M55.646,45.274v11.283
		h4.785c2.434,0,4.294-0.492,5.58-1.475c1.286-0.983,1.929-2.375,1.929-4.177c0-1.774-0.654-3.156-1.96-4.146
		c-1.306-0.99-3.184-1.485-5.631-1.485H55.646z"/>
	<path d="M79.747,43.417h7.384c3.094,0,5.459,0.67,7.096,2.011c1.637,1.341,2.455,3.153,2.455,5.436c0,3.328-1.83,5.666-5.487,7.013
		c0.949,0.454,2.228,1.918,3.836,4.394l6.518,9.963h-2.637l-5.02-7.898c-1.678-2.641-2.983-4.289-3.918-4.941
		c-0.935-0.654-2.303-0.981-4.104-0.981h-3.897v13.82h-2.228V43.417z M81.975,45.274v11.283h4.786c2.434,0,4.294-0.492,5.58-1.475
		c1.286-0.983,1.929-2.375,1.929-4.177c0-1.774-0.653-3.156-1.96-4.146c-1.306-0.99-3.183-1.485-5.631-1.485H81.975z"/>
	<path d="M125.672,43.417l-11.201,13.346v15.471h-2.228V56.763l-11.201-13.346h2.693l9.635,11.417l9.582-11.417H125.672z"/>
</g>
</svg>
