<?xml version="1.0" encoding="utf-8"?>
<!-- Generator: Adobe Illustrator 15.0.0, SVG Export Plug-In . SVG Version: 6.00 Build 0)  -->
<!DOCTYPE svg PUBLIC "-//W3C//DTD SVG 1.1//EN" "http://www.w3.org/Graphics/SVG/1.1/DTD/svg11.dtd">
<svg version="1.1" id="Layer_1" xmlns="http://www.w3.org/2000/svg" xmlns:xlink="http://www.w3.org/1999/xlink" x="0px" y="0px"
	 width="200px" height="116.395px" viewBox="0 0 200 116.395" enable-background="new 0 0 200 116.395" xml:space="preserve">
<g>
	<g>
		<linearGradient id="SVGID_1_" gradientUnits="userSpaceOnUse" x1="60.9043" y1="48.2451" x2="111.0857" y2="16.8883">
			<stop  offset="0" style="stop-color:#292A66"/>
			<stop  offset="0.1995" style="stop-color:#2A2D6E"/>
			<stop  offset="0.5063" style="stop-color:#2B3683"/>
			<stop  offset="0.8803" style="stop-color:#2D45A6"/>
			<stop  offset="1" style="stop-color:#2E4AB3"/>
		</linearGradient>
		<polygon fill="url(#SVGID_1_)" points="123.823,37.272 88.934,2.385 54.047,37.272 		"/>
		<linearGradient id="SVGID_2_" gradientUnits="userSpaceOnUse" x1="131.251" y1="25.5732" x2="113.1967" y2="47.0894">
			<stop  offset="0" style="stop-color:#E6E6E6"/>
			<stop  offset="1" style="stop-color:#B3B3B3"/>
		</linearGradient>
		<polygon fill="url(#SVGID_2_)" points="141.372,37.272 121.433,17.335 101.497,37.272 		"/>
	</g>
	<g>
		<g>
			<linearGradient id="SVGID_3_" gradientUnits="userSpaceOnUse" x1="33.7856" y1="76.1396" x2="4.6427" y2="59.314">
				<stop  offset="0" style="stop-color:#292A66"/>
				<stop  offset="0.4329" style="stop-color:#292B68"/>
				<stop  offset="0.6128" style="stop-color:#282D6F"/>
				<stop  offset="0.7459" style="stop-color:#28327B"/>
				<stop  offset="0.8557" style="stop-color:#26388D"/>
				<stop  offset="0.9503" style="stop-color:#2540A4"/>
				<stop  offset="1" style="stop-color:#2445B3"/>
			</linearGradient>
			<path fill="url(#SVGID_3_)" d="M14.079,65.742h0.151c1.027-1.255,5.44-6.308,6.316-7.46c0.846-1.119,1.511-1.968,1.511-2.543
				c0-0.373-0.121-0.61-0.423-0.678c-0.272-0.068-0.393-0.135-0.393-0.338c0-0.239,0.151-0.306,0.484-0.306
				c0.634,0,2.296,0.102,3.112,0.102c0.937,0,2.599-0.102,3.536-0.102c0.302,0,0.513,0.067,0.513,0.306
				c0,0.236-0.151,0.304-0.453,0.304c-0.423,0-1.178,0.136-1.752,0.373c-0.937,0.407-1.965,1.12-3.264,2.543
				c-0.937,1.017-5.5,6.104-6.528,7.323c1.088,1.595,7.011,8.749,8.189,10.004c1.33,1.424,2.69,2.949,4.322,3.661
				c0.907,0.407,1.511,0.51,1.874,0.51c0.211,0,0.392,0.068,0.392,0.271c0,0.237-0.151,0.338-0.725,0.338h-2.629
				c-0.907,0-1.451,0-2.085-0.068c-1.632-0.168-2.448-0.915-3.747-2.203c-1.33-1.322-7.283-9.155-7.918-10.139l-0.333-0.509h-0.151
				v3.087c0,3.119,0,5.798,0.091,7.257c0.06,0.948,0.332,1.694,1.087,1.83c0.424,0.068,1.088,0.136,1.481,0.136
				c0.242,0,0.393,0.102,0.393,0.271c0,0.237-0.242,0.338-0.574,0.338c-1.692,0-3.596-0.101-4.352-0.101
				c-0.695,0-2.599,0.101-3.808,0.101c-0.392,0-0.604-0.101-0.604-0.338c0-0.17,0.121-0.271,0.484-0.271
				c0.453,0,0.816-0.067,1.088-0.136c0.604-0.136,0.756-0.882,0.876-1.865c0.151-1.424,0.151-4.103,0.151-7.222v-5.968
				c0-5.155,0-6.104-0.06-7.189c-0.061-1.152-0.302-1.695-1.299-1.933c-0.242-0.068-0.756-0.102-1.179-0.102
				c-0.333,0-0.514-0.068-0.514-0.304c0-0.239,0.212-0.306,0.666-0.306c1.601,0,3.505,0.102,4.23,0.102
				c0.725,0,2.629-0.102,3.657-0.102c0.423,0,0.634,0.067,0.634,0.306c0,0.236-0.182,0.304-0.423,0.304
				c-0.302,0-0.483,0.034-0.847,0.102c-0.815,0.17-1.058,0.746-1.118,1.933c-0.061,1.086-0.061,2.034-0.061,7.189V65.742z"/>
			<linearGradient id="SVGID_4_" gradientUnits="userSpaceOnUse" x1="47.1294" y1="73.8647" x2="31.2314" y2="64.686">
				<stop  offset="0" style="stop-color:#292A66"/>
				<stop  offset="0.4329" style="stop-color:#292B68"/>
				<stop  offset="0.6128" style="stop-color:#282D6F"/>
				<stop  offset="0.7459" style="stop-color:#28327B"/>
				<stop  offset="0.8557" style="stop-color:#26388D"/>
				<stop  offset="0.9503" style="stop-color:#2540A4"/>
				<stop  offset="1" style="stop-color:#2445B3"/>
			</linearGradient>
			<path fill="url(#SVGID_4_)" d="M37.166,66.59c0-4.374,0-5.188-0.03-6.104c-0.06-0.982-0.333-1.323-0.906-1.526
				c-0.303-0.101-0.635-0.136-0.967-0.136c-0.272,0-0.424-0.067-0.424-0.339c0-0.169,0.212-0.237,0.635-0.237
				c0.997,0,2.811,0.068,3.565,0.068c0.665,0,2.388-0.068,3.415-0.068c0.332,0,0.544,0.068,0.544,0.237
				c0,0.271-0.152,0.339-0.423,0.339c-0.272,0-0.483,0.035-0.786,0.103c-0.725,0.136-0.937,0.542-0.997,1.56
				c-0.061,0.916-0.061,1.729-0.061,6.104v5.086c0,2.781,0,5.087,0.121,6.307c0.09,0.78,0.272,1.221,1.058,1.356
				c0.363,0.067,0.967,0.103,1.36,0.103c0.302,0,0.423,0.17,0.423,0.306c0,0.203-0.211,0.304-0.513,0.304
				c-1.753,0-3.566-0.101-4.292-0.101c-0.604,0-2.417,0.101-3.475,0.101c-0.333,0-0.514-0.101-0.514-0.304
				c0-0.136,0.091-0.306,0.423-0.306c0.393,0,0.695-0.035,0.937-0.103c0.543-0.136,0.694-0.541,0.785-1.39
				c0.121-1.187,0.121-3.492,0.121-6.273V66.59z"/>
			<linearGradient id="SVGID_5_" gradientUnits="userSpaceOnUse" x1="64.4443" y1="75.9141" x2="44.7533" y2="64.5454">
				<stop  offset="0" style="stop-color:#292A66"/>
				<stop  offset="0.4329" style="stop-color:#292B68"/>
				<stop  offset="0.6128" style="stop-color:#282D6F"/>
				<stop  offset="0.7459" style="stop-color:#28327B"/>
				<stop  offset="0.8557" style="stop-color:#26388D"/>
				<stop  offset="0.9503" style="stop-color:#2540A4"/>
				<stop  offset="1" style="stop-color:#2445B3"/>
			</linearGradient>
			<path fill="url(#SVGID_5_)" d="M54.347,71.676c0,3.696,0,5.527,0.575,6.07c0.453,0.441,1.48,0.609,3.536,0.609
				c1.42,0,2.447-0.033,3.112-0.812c0.333-0.374,0.604-1.188,0.665-1.729c0.03-0.271,0.09-0.441,0.302-0.441
				c0.182,0,0.242,0.306,0.242,0.645s-0.182,2.475-0.393,3.322c-0.181,0.644-0.302,0.779-1.692,0.779
				c-1.904,0-3.446-0.032-4.775-0.101c-1.33-0.035-2.448-0.067-3.536-0.067c-0.302,0-0.876,0.032-1.511,0.032
				c-0.635,0.035-1.299,0.068-1.843,0.068c-0.333,0-0.514-0.101-0.514-0.304c0-0.136,0.09-0.306,0.423-0.306
				c0.392,0,0.694-0.035,0.937-0.103c0.543-0.136,0.695-0.677,0.786-1.525c0.121-1.221,0.121-3.492,0.121-6.138V66.59
				c0-4.374,0-5.188-0.03-6.104c-0.061-0.982-0.302-1.288-1.148-1.56c-0.212-0.067-0.544-0.103-0.877-0.103
				c-0.302,0-0.453-0.102-0.453-0.305s0.182-0.271,0.574-0.271c1.24,0,2.932,0.068,3.657,0.068c0.634,0,2.811-0.068,3.837-0.068
				c0.394,0,0.575,0.068,0.575,0.271s-0.151,0.305-0.484,0.305c-0.302,0-0.726,0.035-1.027,0.103
				c-0.726,0.136-0.937,0.542-0.998,1.56c-0.061,0.916-0.061,1.729-0.061,6.104V71.676z"/>
			<linearGradient id="SVGID_6_" gradientUnits="userSpaceOnUse" x1="82.4395" y1="75.9141" x2="62.7501" y2="64.5464">
				<stop  offset="0" style="stop-color:#292A66"/>
				<stop  offset="0.4329" style="stop-color:#292B68"/>
				<stop  offset="0.6128" style="stop-color:#282D6F"/>
				<stop  offset="0.7459" style="stop-color:#28327B"/>
				<stop  offset="0.8557" style="stop-color:#26388D"/>
				<stop  offset="0.9503" style="stop-color:#2540A4"/>
				<stop  offset="1" style="stop-color:#2445B3"/>
			</linearGradient>
			<path fill="url(#SVGID_6_)" d="M72.343,71.676c0,3.696,0,5.527,0.574,6.07c0.453,0.441,1.48,0.609,3.536,0.609
				c1.42,0,2.448-0.033,3.113-0.812c0.333-0.374,0.604-1.188,0.665-1.729c0.03-0.271,0.09-0.441,0.303-0.441
				c0.181,0,0.241,0.306,0.241,0.645s-0.181,2.475-0.393,3.322c-0.181,0.644-0.302,0.779-1.692,0.779
				c-1.904,0-3.445-0.032-4.775-0.101c-1.33-0.035-2.448-0.067-3.536-0.067c-0.302,0-0.876,0.032-1.51,0.032
				c-0.635,0.035-1.3,0.068-1.844,0.068c-0.332,0-0.514-0.101-0.514-0.304c0-0.136,0.09-0.306,0.423-0.306
				c0.393,0,0.694-0.035,0.937-0.103c0.543-0.136,0.694-0.677,0.785-1.525c0.121-1.221,0.121-3.492,0.121-6.138V66.59
				c0-4.374,0-5.188-0.03-6.104c-0.06-0.982-0.302-1.288-1.148-1.56c-0.211-0.067-0.544-0.103-0.876-0.103
				c-0.302,0-0.453-0.102-0.453-0.305s0.181-0.271,0.574-0.271c1.239,0,2.931,0.068,3.657,0.068c0.634,0,2.81-0.068,3.838-0.068
				c0.393,0,0.574,0.068,0.574,0.271s-0.151,0.305-0.484,0.305c-0.302,0-0.725,0.035-1.027,0.103
				c-0.725,0.136-0.937,0.542-0.998,1.56c-0.06,0.916-0.06,1.729-0.06,6.104V71.676z"/>
			<linearGradient id="SVGID_7_" gradientUnits="userSpaceOnUse" x1="106.124" y1="78.7109" x2="87.9282" y2="68.2056">
				<stop  offset="0" style="stop-color:#292A66"/>
				<stop  offset="0.4329" style="stop-color:#292B68"/>
				<stop  offset="0.6128" style="stop-color:#282D6F"/>
				<stop  offset="0.7459" style="stop-color:#28327B"/>
				<stop  offset="0.8557" style="stop-color:#26388D"/>
				<stop  offset="0.9503" style="stop-color:#2540A4"/>
				<stop  offset="1" style="stop-color:#2445B3"/>
			</linearGradient>
			<path fill="url(#SVGID_7_)" d="M90.429,72.795c-0.151,0-0.181,0.034-0.242,0.204l-1.42,3.865
				c-0.272,0.712-0.393,1.424-0.393,1.763c0,0.509,0.241,0.814,1.058,0.814h0.393c0.332,0,0.393,0.136,0.393,0.306
				c0,0.235-0.151,0.304-0.423,0.304c-0.876,0-2.115-0.101-2.961-0.101c-0.271,0-1.692,0.101-3.083,0.101
				c-0.333,0-0.484-0.068-0.484-0.304c0-0.17,0.091-0.306,0.303-0.306c0.242,0,0.544-0.035,0.785-0.035
				c1.209-0.203,1.663-1.084,2.207-2.542l6.95-18.142c0.303-0.813,0.515-1.152,0.786-1.152c0.393,0,0.514,0.271,0.785,0.915
				c0.635,1.594,5.078,13.395,6.77,17.769c1.027,2.611,1.782,2.984,2.267,3.085c0.394,0.067,0.695,0.103,0.997,0.103
				c0.243,0,0.363,0.102,0.363,0.306c0,0.235-0.151,0.304-1.148,0.304c-0.938,0-2.871,0-5.107-0.068
				c-0.482-0.032-0.786-0.032-0.786-0.235c0-0.17,0.062-0.272,0.333-0.306c0.182-0.035,0.361-0.306,0.241-0.644l-2.055-5.799
				c-0.061-0.17-0.151-0.204-0.271-0.204H90.429z M96.11,71.201c0.12,0,0.15-0.067,0.12-0.169l-2.508-7.325
				c-0.029-0.101-0.061-0.271-0.121-0.271c-0.091,0-0.121,0.17-0.15,0.271l-2.569,7.291c-0.06,0.136,0,0.203,0.091,0.203H96.11z"/>
			<linearGradient id="SVGID_8_" gradientUnits="userSpaceOnUse" x1="130.0225" y1="78.4111" x2="104.8316" y2="63.8672">
				<stop  offset="0" style="stop-color:#292A66"/>
				<stop  offset="0.4329" style="stop-color:#292B68"/>
				<stop  offset="0.6128" style="stop-color:#282D6F"/>
				<stop  offset="0.7459" style="stop-color:#28327B"/>
				<stop  offset="0.8557" style="stop-color:#26388D"/>
				<stop  offset="0.9503" style="stop-color:#2540A4"/>
				<stop  offset="1" style="stop-color:#2445B3"/>
			</linearGradient>
			<path fill="url(#SVGID_8_)" d="M110.646,66.59c0-4.374,0-5.188-0.029-6.104c-0.062-0.982-0.303-1.288-1.15-1.56
				c-0.21-0.067-0.664-0.103-1.057-0.103c-0.272,0-0.454-0.102-0.454-0.305s0.213-0.271,0.605-0.271c1.39,0,3.081,0.068,3.626,0.068
				c0.906,0,3.324-0.068,4.14-0.068c1.692,0,3.627,0.17,5.047,1.221c0.756,0.577,1.873,2.035,1.873,3.968
				c0,2.137-1.087,4.035-3.687,6.374c2.358,3.257,4.231,5.867,5.833,7.665c1.48,1.66,2.417,1.795,2.841,1.898
				c0.271,0.067,0.423,0.067,0.635,0.067c0.211,0,0.333,0.17,0.333,0.306c0,0.235-0.183,0.304-0.515,0.304h-2.538
				c-1.481,0-2.206-0.169-2.902-0.576c-1.147-0.644-2.145-1.999-3.626-4.238c-1.058-1.561-2.176-3.492-2.508-3.934
				c-0.151-0.169-0.303-0.203-0.483-0.203l-2.387-0.067c-0.121,0-0.213,0.067-0.213,0.237v0.406c0,2.68,0.031,4.917,0.152,6.138
				c0.09,0.849,0.211,1.39,1.027,1.525c0.393,0.067,0.967,0.103,1.299,0.103c0.212,0,0.332,0.17,0.332,0.306
				c0,0.203-0.211,0.304-0.543,0.304c-1.542,0-3.748-0.101-4.141-0.101c-0.515,0-2.206,0.101-3.265,0.101
				c-0.331,0-0.513-0.101-0.513-0.304c0-0.136,0.091-0.306,0.423-0.306c0.393,0,0.695-0.035,0.937-0.103
				c0.545-0.136,0.695-0.677,0.786-1.525c0.121-1.221,0.121-3.492,0.121-6.138V66.59z M114.029,68.827
				c0,0.306,0.061,0.408,0.242,0.509c0.574,0.203,1.359,0.271,2.025,0.271c1.057,0,1.42-0.101,1.874-0.475
				c0.815-0.645,1.722-1.898,1.722-4.272c0-4.069-2.479-5.12-4.05-5.12c-0.664,0-1.299,0.034-1.571,0.103
				c-0.182,0.067-0.242,0.168-0.242,0.406V68.827z"/>
			<linearGradient id="SVGID_9_" gradientUnits="userSpaceOnUse" x1="154.0332" y1="75.6411" x2="131.5943" y2="62.686">
				<stop  offset="0" style="stop-color:#292A66"/>
				<stop  offset="0.4329" style="stop-color:#292B68"/>
				<stop  offset="0.6128" style="stop-color:#282D6F"/>
				<stop  offset="0.7459" style="stop-color:#28327B"/>
				<stop  offset="0.8557" style="stop-color:#26388D"/>
				<stop  offset="0.9503" style="stop-color:#2540A4"/>
				<stop  offset="1" style="stop-color:#2445B3"/>
			</linearGradient>
			<path fill="url(#SVGID_9_)" d="M136.257,76.118c0.062,2.237,0.393,2.917,0.906,3.12c0.454,0.168,0.968,0.203,1.392,0.203
				c0.302,0,0.453,0.136,0.453,0.306c0,0.235-0.243,0.304-0.605,0.304c-1.722,0-2.961-0.101-3.445-0.101
				c-0.242,0-1.511,0.101-2.87,0.101c-0.363,0-0.604-0.033-0.604-0.304c0-0.17,0.181-0.306,0.422-0.306
				c0.364,0,0.848-0.035,1.209-0.136c0.696-0.203,0.786-0.983,0.817-3.492l0.241-17.091c0-0.575,0.181-0.983,0.453-0.983
				c0.332,0,0.695,0.441,1.148,0.949c0.333,0.374,4.322,4.951,8.189,9.19c1.813,2,5.349,6.068,5.742,6.477h0.121l-0.272-12.818
				c-0.029-1.763-0.272-2.271-0.907-2.542c-0.393-0.171-1.027-0.171-1.39-0.171c-0.332,0-0.424-0.136-0.424-0.305
				c0-0.237,0.273-0.271,0.665-0.271c1.391,0,2.811,0.068,3.385,0.068c0.303,0,1.3-0.068,2.601-0.068
				c0.361,0,0.604,0.034,0.604,0.271c0,0.169-0.151,0.305-0.454,0.305c-0.271,0-0.482,0-0.815,0.103
				c-0.726,0.236-0.937,0.745-0.967,2.373l-0.302,18.175c0,0.644-0.212,0.916-0.425,0.916c-0.451,0-0.815-0.305-1.086-0.61
				c-1.664-1.729-4.987-5.289-7.768-8.308c-2.9-3.12-5.711-6.612-6.225-7.121h-0.092L136.257,76.118z"/>
			<linearGradient id="SVGID_10_" gradientUnits="userSpaceOnUse" x1="174.2432" y1="74.5581" x2="154.8506" y2="63.3618">
				<stop  offset="0" style="stop-color:#292A66"/>
				<stop  offset="0.4329" style="stop-color:#292B68"/>
				<stop  offset="0.6128" style="stop-color:#282D6F"/>
				<stop  offset="0.7459" style="stop-color:#28327B"/>
				<stop  offset="0.8557" style="stop-color:#26388D"/>
				<stop  offset="0.9503" style="stop-color:#2540A4"/>
				<stop  offset="1" style="stop-color:#2445B3"/>
			</linearGradient>
			<path fill="url(#SVGID_10_)" d="M160.372,66.59c0-4.374,0-5.188-0.029-6.104c-0.061-0.982-0.303-1.288-1.148-1.56
				c-0.211-0.067-0.665-0.103-1.059-0.103c-0.272,0-0.453-0.102-0.453-0.305s0.212-0.271,0.605-0.271
				c1.389,0,3.082,0.068,3.837,0.068c0.848,0,6.739,0.033,7.254,0c0.482-0.034,0.906-0.136,1.117-0.169
				c0.151-0.035,0.303-0.137,0.424-0.137c0.15,0,0.181,0.137,0.181,0.271c0,0.203-0.151,0.542-0.211,1.864
				c-0.03,0.306-0.091,1.561-0.151,1.899c-0.03,0.136-0.091,0.475-0.303,0.475c-0.181,0-0.211-0.136-0.211-0.373
				c0-0.203-0.03-0.712-0.183-1.051c-0.21-0.51-0.422-0.915-1.752-1.051c-0.452-0.067-3.627-0.136-4.17-0.136
				c-0.121,0-0.182,0.101-0.182,0.271v7.12c0,0.17,0.03,0.305,0.182,0.305c0.604,0,4.05,0,4.654-0.067
				c0.634-0.067,1.026-0.136,1.268-0.44c0.213-0.204,0.303-0.373,0.424-0.373c0.122,0,0.211,0.136,0.211,0.305
				c0,0.17-0.06,0.645-0.211,2.103c-0.061,0.577-0.121,1.729-0.121,1.933c0,0.237-0.029,0.645-0.271,0.645
				c-0.181,0-0.241-0.102-0.241-0.237c-0.031-0.305-0.031-0.678-0.092-1.051c-0.15-0.576-0.482-1.019-1.48-1.119
				c-0.482-0.067-3.505-0.136-4.17-0.136c-0.121,0-0.151,0.136-0.151,0.305v2.306c0,0.983-0.03,3.426,0,4.273
				c0.061,1.966,0.877,2.407,3.597,2.407c0.694,0,1.812-0.034,2.507-0.374c0.666-0.338,0.968-0.949,1.15-2.136
				c0.06-0.306,0.12-0.44,0.302-0.44c0.211,0,0.241,0.373,0.241,0.678c0,0.645-0.211,2.612-0.362,3.188
				c-0.181,0.744-0.424,0.744-1.42,0.744c-1.995,0-3.597-0.032-4.896-0.101c-1.3-0.035-2.297-0.067-3.082-0.067
				c-0.303,0-0.876,0.032-1.511,0.032c-0.635,0.035-1.3,0.068-1.844,0.068c-0.332,0-0.514-0.101-0.514-0.304
				c0-0.136,0.09-0.306,0.423-0.306c0.394,0,0.695-0.035,0.937-0.103c0.544-0.136,0.696-0.677,0.785-1.525
				c0.121-1.221,0.121-3.492,0.121-6.138V66.59z"/>
			<linearGradient id="SVGID_11_" gradientUnits="userSpaceOnUse" x1="194.0068" y1="72.4883" x2="173.4447" y2="60.6167">
				<stop  offset="0" style="stop-color:#292A66"/>
				<stop  offset="0.4329" style="stop-color:#292B68"/>
				<stop  offset="0.6128" style="stop-color:#282D6F"/>
				<stop  offset="0.7459" style="stop-color:#28327B"/>
				<stop  offset="0.8557" style="stop-color:#26388D"/>
				<stop  offset="0.9503" style="stop-color:#2540A4"/>
				<stop  offset="1" style="stop-color:#2445B3"/>
			</linearGradient>
			<path fill="url(#SVGID_11_)" d="M183.279,72.558c0-1.56-0.241-2.171-0.604-3.019c-0.181-0.44-3.807-6.781-4.744-8.307
				c-0.664-1.051-1.209-1.729-1.723-2.034c-0.333-0.203-0.786-0.374-1.117-0.374c-0.212,0-0.394-0.102-0.394-0.305
				s0.182-0.271,0.514-0.271c0.453,0,2.447,0.068,3.324,0.068c0.574,0,1.813-0.068,3.022-0.068c0.241,0,0.393,0.068,0.393,0.271
				c0,0.237-0.183,0.237-0.605,0.373c-0.211,0.067-0.361,0.203-0.361,0.44c0,0.238,0.12,0.577,0.332,0.984
				c0.483,0.881,3.959,7.63,4.412,8.442c0.333-0.679,3.565-6.85,3.959-7.73c0.271-0.645,0.393-1.154,0.393-1.525
				c0-0.272-0.121-0.544-0.574-0.645c-0.242-0.067-0.484-0.103-0.484-0.34c0-0.203,0.152-0.271,0.454-0.271
				c0.877,0,1.813,0.068,2.599,0.068c0.574,0,2.327-0.068,2.841-0.068c0.303,0,0.483,0.068,0.483,0.237
				c0,0.203-0.212,0.339-0.514,0.339c-0.271,0-0.755,0.136-1.147,0.339c-0.574,0.306-0.816,0.577-1.392,1.356
				c-0.876,1.153-4.683,8.004-5.167,9.224c-0.393,1.052-0.333,1.933-0.333,2.882v2.306c0,0.476,0,1.662,0.061,2.883
				c0.061,0.849,0.303,1.39,1.089,1.525c0.392,0.067,0.966,0.103,1.329,0.103c0.303,0,0.454,0.17,0.454,0.306
				c0,0.203-0.212,0.304-0.574,0.304c-1.663,0-3.445-0.101-4.171-0.101c-0.664,0-2.448,0.101-3.445,0.101
				c-0.362,0-0.574-0.068-0.574-0.304c0-0.136,0.121-0.306,0.424-0.306c0.362,0,0.695-0.035,0.937-0.103
				c0.544-0.136,0.756-0.677,0.815-1.525c0.091-1.221,0.091-2.407,0.091-2.883V72.558z"/>
		</g>
		<g>
			<linearGradient id="SVGID_12_" gradientUnits="userSpaceOnUse" x1="6.0083" y1="102.4434" x2="22.6294" y2="102.4434">
				<stop  offset="0" style="stop-color:#292A66"/>
				<stop  offset="0.4329" style="stop-color:#292B68"/>
				<stop  offset="0.6128" style="stop-color:#282D6F"/>
				<stop  offset="0.7459" style="stop-color:#28327B"/>
				<stop  offset="0.8557" style="stop-color:#26388D"/>
				<stop  offset="0.9503" style="stop-color:#2540A4"/>
				<stop  offset="1" style="stop-color:#2445B3"/>
			</linearGradient>
			<path fill="url(#SVGID_12_)" d="M9.001,96.603c0.049-0.273,0.145-0.418,0.273-0.418c0.129,0,0.226,0.08,0.435,0.499l4.393,9.074
				l4.377-9.188c0.128-0.257,0.209-0.385,0.354-0.385s0.241,0.16,0.29,0.499l1.464,9.943c0.145,1.013,0.306,1.479,0.789,1.624
				c0.466,0.146,0.789,0.161,0.998,0.161c0.145,0,0.257,0.017,0.257,0.113c0,0.129-0.192,0.177-0.418,0.177
				c-0.402,0-2.623-0.048-3.267-0.097c-0.37-0.031-0.466-0.08-0.466-0.177c0-0.08,0.064-0.128,0.177-0.178
				c0.097-0.03,0.145-0.24,0.081-0.691l-0.965-7.08h-0.064l-3.507,7.306c-0.37,0.757-0.451,0.901-0.596,0.901
				s-0.306-0.322-0.563-0.805c-0.386-0.74-1.657-3.201-1.85-3.652c-0.146-0.337-1.11-2.365-1.673-3.572H9.452l-0.836,6.404
				c-0.033,0.29-0.048,0.498-0.048,0.756c0,0.307,0.209,0.45,0.482,0.515c0.29,0.065,0.515,0.08,0.676,0.08
				c0.129,0,0.241,0.033,0.241,0.113c0,0.145-0.145,0.177-0.386,0.177c-0.676,0-1.4-0.048-1.69-0.048
				c-0.305,0-1.078,0.048-1.592,0.048c-0.161,0-0.29-0.032-0.29-0.177c0-0.08,0.097-0.113,0.258-0.113c0.128,0,0.241,0,0.483-0.048
				c0.45-0.097,0.579-0.725,0.659-1.271L9.001,96.603z"/>
			<linearGradient id="SVGID_13_" gradientUnits="userSpaceOnUse" x1="26.6597" y1="103.4902" x2="34.1416" y2="103.4902">
				<stop  offset="0" style="stop-color:#292A66"/>
				<stop  offset="0.4329" style="stop-color:#292B68"/>
				<stop  offset="0.6128" style="stop-color:#282D6F"/>
				<stop  offset="0.7459" style="stop-color:#28327B"/>
				<stop  offset="0.8557" style="stop-color:#26388D"/>
				<stop  offset="0.9503" style="stop-color:#2540A4"/>
				<stop  offset="1" style="stop-color:#2445B3"/>
			</linearGradient>
			<path fill="url(#SVGID_13_)" d="M28.092,102.314c0-2.075,0-2.461-0.016-2.896c-0.032-0.467-0.161-0.611-0.611-0.741
				c-0.113-0.032-0.354-0.048-0.563-0.048c-0.145,0-0.241-0.049-0.241-0.146c0-0.096,0.113-0.128,0.322-0.128
				c0.74,0,1.641,0.032,2.043,0.032c0.451,0,3.588,0.016,3.862,0c0.257-0.016,0.483-0.064,0.595-0.081
				c0.081-0.015,0.161-0.063,0.225-0.063c0.081,0,0.097,0.063,0.097,0.129c0,0.097-0.081,0.257-0.113,0.885
				c-0.016,0.145-0.048,0.74-0.081,0.9c-0.016,0.064-0.048,0.225-0.161,0.225c-0.097,0-0.113-0.063-0.113-0.177
				c0-0.096-0.016-0.338-0.096-0.498c-0.113-0.241-0.226-0.435-0.933-0.498c-0.242-0.033-1.931-0.065-2.221-0.065
				c-0.064,0-0.096,0.048-0.096,0.129v3.379c0,0.08,0.016,0.145,0.096,0.145c0.322,0,2.156,0,2.478-0.031
				c0.337-0.033,0.547-0.064,0.676-0.209c0.112-0.098,0.161-0.178,0.225-0.178s0.113,0.064,0.113,0.146
				c0,0.08-0.033,0.306-0.113,0.997c-0.032,0.273-0.064,0.82-0.064,0.917c0,0.112-0.016,0.306-0.145,0.306
				c-0.097,0-0.129-0.049-0.129-0.112c-0.016-0.145-0.016-0.321-0.048-0.499c-0.08-0.273-0.257-0.482-0.788-0.531
				c-0.257-0.031-1.866-0.063-2.221-0.063c-0.064,0-0.08,0.063-0.08,0.144v1.096c0,0.466-0.017,1.624,0,2.026
				c0.032,0.933,0.466,1.143,1.914,1.143c0.371,0,0.966-0.017,1.336-0.177c0.354-0.161,0.515-0.451,0.611-1.014
				c0.032-0.146,0.064-0.21,0.161-0.21c0.112,0,0.128,0.177,0.128,0.321c0,0.307-0.113,1.239-0.193,1.514
				c-0.096,0.354-0.225,0.354-0.756,0.354c-1.062,0-1.915-0.017-2.606-0.049c-0.692-0.017-1.223-0.032-1.642-0.032
				c-0.161,0-0.466,0.016-0.804,0.016c-0.338,0.017-0.692,0.032-0.981,0.032c-0.177,0-0.273-0.048-0.273-0.145
				c0-0.063,0.048-0.146,0.225-0.146c0.21,0,0.371-0.015,0.499-0.048c0.29-0.063,0.37-0.321,0.418-0.725
				c0.065-0.578,0.065-1.656,0.065-2.911V102.314z"/>
			<linearGradient id="SVGID_14_" gradientUnits="userSpaceOnUse" x1="38.8281" y1="103.5859" x2="50.5259" y2="103.5859">
				<stop  offset="0" style="stop-color:#292A66"/>
				<stop  offset="0.4329" style="stop-color:#292B68"/>
				<stop  offset="0.6128" style="stop-color:#282D6F"/>
				<stop  offset="0.7459" style="stop-color:#28327B"/>
				<stop  offset="0.8557" style="stop-color:#26388D"/>
				<stop  offset="0.9503" style="stop-color:#2540A4"/>
				<stop  offset="1" style="stop-color:#2445B3"/>
			</linearGradient>
			<path fill="url(#SVGID_14_)" d="M40.26,102.314c0-2.075,0-2.461-0.016-2.896c-0.032-0.467-0.161-0.611-0.611-0.741
				c-0.113-0.032-0.354-0.048-0.563-0.048c-0.145,0-0.242-0.049-0.242-0.146c0-0.096,0.113-0.128,0.322-0.128
				c0.74,0,1.642,0.032,2.043,0.032c0.435,0,1.449-0.032,2.301-0.032c1.77,0,4.151,0,5.696,1.561
				c0.708,0.709,1.335,1.85,1.335,3.477c0,1.721-0.74,3.025-1.544,3.812c-0.644,0.644-2.14,1.609-4.747,1.609
				c-0.515,0-1.126-0.049-1.689-0.08c-0.563-0.049-1.078-0.081-1.432-0.081c-0.161,0-0.467,0.016-0.804,0.016
				c-0.338,0.017-0.692,0.032-0.982,0.032c-0.177,0-0.273-0.048-0.273-0.145c0-0.063,0.048-0.146,0.225-0.146
				c0.209,0,0.37-0.015,0.499-0.048c0.29-0.063,0.371-0.321,0.418-0.725c0.064-0.578,0.064-1.656,0.064-2.911V102.314z
				 M42.159,103.827c0,1.448,0.016,2.494,0.032,2.767c0.017,0.34,0.049,0.821,0.161,0.966c0.177,0.258,0.741,0.547,1.851,0.547
				c1.287,0,2.236-0.225,3.089-0.933c0.917-0.755,1.207-1.979,1.207-3.396c0-1.737-0.692-2.863-1.319-3.41
				c-1.303-1.158-2.848-1.303-3.958-1.303c-0.289,0-0.756,0.03-0.869,0.097c-0.128,0.048-0.177,0.111-0.177,0.272
				c-0.016,0.467-0.016,1.593-0.016,2.671V103.827z"/>
			<linearGradient id="SVGID_15_" gradientUnits="userSpaceOnUse" x1="55.4561" y1="103.5293" x2="60.1704" y2="103.5293">
				<stop  offset="0" style="stop-color:#292A66"/>
				<stop  offset="0.4329" style="stop-color:#292B68"/>
				<stop  offset="0.6128" style="stop-color:#282D6F"/>
				<stop  offset="0.7459" style="stop-color:#28327B"/>
				<stop  offset="0.8557" style="stop-color:#26388D"/>
				<stop  offset="0.9503" style="stop-color:#2540A4"/>
				<stop  offset="1" style="stop-color:#2445B3"/>
			</linearGradient>
			<path fill="url(#SVGID_15_)" d="M56.695,102.314c0-2.075,0-2.461-0.016-2.896c-0.032-0.467-0.177-0.628-0.482-0.724
				c-0.161-0.05-0.338-0.065-0.515-0.065c-0.146,0-0.226-0.032-0.226-0.16c0-0.081,0.112-0.113,0.338-0.113
				c0.531,0,1.497,0.032,1.898,0.032c0.354,0,1.271-0.032,1.818-0.032c0.177,0,0.29,0.032,0.29,0.113c0,0.128-0.081,0.16-0.225,0.16
				c-0.145,0-0.257,0.016-0.418,0.048c-0.386,0.065-0.499,0.258-0.531,0.741c-0.033,0.435-0.033,0.82-0.033,2.896v2.414
				c0,1.319,0,2.413,0.064,2.993c0.048,0.369,0.146,0.579,0.563,0.643c0.193,0.033,0.515,0.048,0.724,0.048
				c0.161,0,0.226,0.082,0.226,0.146c0,0.097-0.113,0.145-0.274,0.145c-0.933,0-1.898-0.048-2.284-0.048
				c-0.322,0-1.287,0.048-1.851,0.048c-0.177,0-0.274-0.048-0.274-0.145c0-0.063,0.048-0.146,0.226-0.146
				c0.209,0,0.37-0.015,0.499-0.048c0.29-0.063,0.371-0.258,0.418-0.658c0.064-0.564,0.064-1.658,0.064-2.978V102.314z"/>
			<linearGradient id="SVGID_16_" gradientUnits="userSpaceOnUse" x1="64.7598" y1="103.5215" x2="74.623" y2="103.5215">
				<stop  offset="0" style="stop-color:#292A66"/>
				<stop  offset="0.4329" style="stop-color:#292B68"/>
				<stop  offset="0.6128" style="stop-color:#282D6F"/>
				<stop  offset="0.7459" style="stop-color:#28327B"/>
				<stop  offset="0.8557" style="stop-color:#26388D"/>
				<stop  offset="0.9503" style="stop-color:#2540A4"/>
				<stop  offset="1" style="stop-color:#2445B3"/>
			</linearGradient>
			<path fill="url(#SVGID_16_)" d="M66.53,107.399c-1.4-1.175-1.77-2.719-1.77-4.039c0-0.933,0.306-2.542,1.657-3.749
				c1.03-0.9,2.381-1.448,4.489-1.448c0.885,0,1.416,0.064,2.06,0.145c0.531,0.081,0.998,0.177,1.416,0.226
				c0.161,0.017,0.209,0.081,0.209,0.162c0,0.112-0.032,0.273-0.064,0.755c-0.032,0.451-0.032,1.207-0.048,1.48
				c-0.016,0.193-0.064,0.339-0.193,0.339c-0.113,0-0.145-0.114-0.145-0.291c-0.016-0.435-0.193-0.917-0.547-1.271
				c-0.483-0.467-1.432-0.804-2.735-0.804c-1.239,0-2.027,0.225-2.671,0.772c-1.046,0.9-1.304,2.22-1.304,3.555
				c0,3.251,2.51,4.796,4.409,4.796c1.255,0,1.947-0.098,2.51-0.725c0.242-0.274,0.435-0.66,0.483-0.917
				c0.032-0.21,0.064-0.273,0.177-0.273c0.096,0,0.161,0.129,0.161,0.24c0,0.161-0.161,1.354-0.306,1.819
				c-0.064,0.24-0.129,0.306-0.37,0.402c-0.563,0.225-1.641,0.305-2.558,0.305C69.458,108.879,67.817,108.478,66.53,107.399z"/>
			<linearGradient id="SVGID_17_" gradientUnits="userSpaceOnUse" x1="77.6694" y1="103.3691" x2="89.4956" y2="103.3691">
				<stop  offset="0" style="stop-color:#292A66"/>
				<stop  offset="0.4329" style="stop-color:#292B68"/>
				<stop  offset="0.6128" style="stop-color:#282D6F"/>
				<stop  offset="0.7459" style="stop-color:#28327B"/>
				<stop  offset="0.8557" style="stop-color:#26388D"/>
				<stop  offset="0.9503" style="stop-color:#2540A4"/>
				<stop  offset="1" style="stop-color:#2445B3"/>
			</linearGradient>
			<path fill="url(#SVGID_17_)" d="M81.483,105.259c-0.081,0-0.097,0.017-0.129,0.097l-0.756,1.835
				c-0.145,0.338-0.209,0.676-0.209,0.837c0,0.24,0.129,0.385,0.563,0.385h0.209c0.177,0,0.209,0.065,0.209,0.146
				c0,0.112-0.08,0.145-0.225,0.145c-0.466,0-1.126-0.048-1.577-0.048c-0.145,0-0.901,0.048-1.641,0.048
				c-0.177,0-0.257-0.032-0.257-0.145c0-0.08,0.048-0.146,0.161-0.146c0.129,0,0.29-0.015,0.418-0.015
				c0.644-0.097,0.885-0.516,1.175-1.207l3.7-8.609c0.161-0.385,0.274-0.546,0.419-0.546c0.209,0,0.273,0.128,0.418,0.435
				c0.338,0.756,2.703,6.355,3.604,8.431c0.546,1.239,0.949,1.416,1.207,1.464c0.209,0.033,0.37,0.048,0.531,0.048
				c0.129,0,0.193,0.049,0.193,0.146c0,0.112-0.081,0.145-0.611,0.145c-0.499,0-1.529,0-2.719-0.032
				c-0.258-0.016-0.419-0.016-0.419-0.112c0-0.08,0.032-0.129,0.177-0.146c0.097-0.015,0.194-0.145,0.129-0.306l-1.094-2.751
				c-0.032-0.08-0.08-0.097-0.145-0.097H81.483z M84.508,104.503c0.064,0,0.08-0.032,0.064-0.08l-1.335-3.476
				c-0.016-0.049-0.032-0.129-0.064-0.129c-0.049,0-0.064,0.08-0.081,0.129l-1.368,3.46c-0.032,0.063,0,0.096,0.048,0.096H84.508z"
				/>
			<linearGradient id="SVGID_18_" gradientUnits="userSpaceOnUse" x1="92.9277" y1="103.5459" x2="100.6504" y2="103.5459">
				<stop  offset="0" style="stop-color:#292A66"/>
				<stop  offset="0.4329" style="stop-color:#292B68"/>
				<stop  offset="0.6128" style="stop-color:#282D6F"/>
				<stop  offset="0.7459" style="stop-color:#28327B"/>
				<stop  offset="0.8557" style="stop-color:#26388D"/>
				<stop  offset="0.9503" style="stop-color:#2540A4"/>
				<stop  offset="1" style="stop-color:#2445B3"/>
			</linearGradient>
			<path fill="url(#SVGID_18_)" d="M96.162,104.729c0,1.754,0,2.623,0.306,2.88c0.241,0.209,0.788,0.289,1.882,0.289
				c0.757,0,1.303-0.016,1.658-0.386c0.176-0.177,0.321-0.563,0.354-0.82c0.016-0.129,0.049-0.209,0.16-0.209
				c0.098,0,0.129,0.145,0.129,0.306c0,0.16-0.096,1.175-0.209,1.576c-0.097,0.306-0.16,0.371-0.9,0.371
				c-1.014,0-1.834-0.017-2.543-0.049c-0.707-0.017-1.303-0.032-1.883-0.032c-0.16,0-0.466,0.016-0.804,0.016
				c-0.339,0.017-0.692,0.032-0.981,0.032c-0.178,0-0.273-0.048-0.273-0.145c0-0.063,0.048-0.146,0.225-0.146
				c0.209,0,0.37-0.015,0.499-0.048c0.29-0.063,0.37-0.321,0.418-0.725c0.065-0.578,0.065-1.656,0.065-2.911v-2.414
				c0-2.075,0-2.461-0.018-2.896c-0.031-0.467-0.16-0.611-0.61-0.741c-0.112-0.032-0.29-0.048-0.468-0.048
				c-0.16,0-0.24-0.049-0.24-0.146c0-0.096,0.096-0.128,0.306-0.128c0.659,0,1.561,0.032,1.947,0.032
				c0.337,0,1.496-0.032,2.043-0.032c0.209,0,0.306,0.032,0.306,0.128c0,0.097-0.08,0.146-0.258,0.146
				c-0.16,0-0.386,0.016-0.547,0.048c-0.386,0.065-0.499,0.258-0.531,0.741c-0.031,0.435-0.031,0.82-0.031,2.896V104.729z"/>
			<linearGradient id="SVGID_19_" gradientUnits="userSpaceOnUse" x1="112.9834" y1="102.6201" x2="124.166" y2="102.6201">
				<stop  offset="0" style="stop-color:#292A66"/>
				<stop  offset="0.4329" style="stop-color:#292B68"/>
				<stop  offset="0.6128" style="stop-color:#282D6F"/>
				<stop  offset="0.7459" style="stop-color:#28327B"/>
				<stop  offset="0.8557" style="stop-color:#26388D"/>
				<stop  offset="0.9503" style="stop-color:#2540A4"/>
				<stop  offset="1" style="stop-color:#2445B3"/>
			</linearGradient>
			<path fill="url(#SVGID_19_)" d="M114.979,107.174c-1.577-1.384-1.995-3.186-1.995-4.746c0-1.095,0.338-2.993,1.884-4.409
				c1.157-1.062,2.686-1.706,5.084-1.706c0.997,0,1.592,0.065,2.333,0.161c0.611,0.081,1.126,0.226,1.608,0.273
				c0.178,0.017,0.241,0.097,0.241,0.192c0,0.13-0.048,0.322-0.08,0.887c-0.031,0.53-0.017,1.415-0.049,1.737
				c-0.016,0.241-0.049,0.37-0.193,0.37c-0.129,0-0.16-0.129-0.16-0.354c-0.017-0.5-0.226-1.062-0.628-1.48
				c-0.53-0.564-1.786-0.998-3.266-0.998c-1.399,0-2.316,0.354-3.025,0.998c-1.174,1.077-1.48,2.606-1.48,4.167
				c0,3.829,2.912,5.728,5.068,5.728c1.432,0,2.301-0.161,2.944-0.9c0.273-0.306,0.483-0.772,0.547-1.062
				c0.048-0.257,0.081-0.321,0.211-0.321c0.111,0,0.144,0.112,0.144,0.241c0,0.193-0.192,1.593-0.354,2.14
				c-0.08,0.273-0.144,0.354-0.418,0.467c-0.644,0.258-1.866,0.37-2.896,0.37C118.293,108.928,116.442,108.445,114.979,107.174z"/>
			<linearGradient id="SVGID_20_" gradientUnits="userSpaceOnUse" x1="129.0791" y1="103.4902" x2="136.5615" y2="103.4902">
				<stop  offset="0" style="stop-color:#292A66"/>
				<stop  offset="0.4329" style="stop-color:#292B68"/>
				<stop  offset="0.6128" style="stop-color:#282D6F"/>
				<stop  offset="0.7459" style="stop-color:#28327B"/>
				<stop  offset="0.8557" style="stop-color:#26388D"/>
				<stop  offset="0.9503" style="stop-color:#2540A4"/>
				<stop  offset="1" style="stop-color:#2445B3"/>
			</linearGradient>
			<path fill="url(#SVGID_20_)" d="M130.512,102.314c0-2.075,0-2.461-0.016-2.896c-0.033-0.467-0.161-0.611-0.611-0.741
				c-0.113-0.032-0.354-0.048-0.563-0.048c-0.146,0-0.242-0.049-0.242-0.146c0-0.096,0.113-0.128,0.322-0.128
				c0.74,0,1.642,0.032,2.044,0.032c0.45,0,3.589,0.016,3.861,0c0.257-0.016,0.483-0.064,0.596-0.081
				c0.08-0.015,0.161-0.063,0.225-0.063c0.081,0,0.097,0.063,0.097,0.129c0,0.097-0.08,0.257-0.112,0.885
				c-0.017,0.145-0.048,0.74-0.081,0.9c-0.016,0.064-0.048,0.225-0.16,0.225c-0.097,0-0.113-0.063-0.113-0.177
				c0-0.096-0.016-0.338-0.097-0.498c-0.111-0.241-0.225-0.435-0.933-0.498c-0.241-0.033-1.932-0.065-2.22-0.065
				c-0.066,0-0.097,0.048-0.097,0.129v3.379c0,0.08,0.016,0.145,0.097,0.145c0.321,0,2.155,0,2.478-0.031
				c0.337-0.033,0.546-0.064,0.675-0.209c0.113-0.098,0.161-0.178,0.226-0.178c0.065,0,0.113,0.064,0.113,0.146
				c0,0.08-0.032,0.306-0.113,0.997c-0.032,0.273-0.064,0.82-0.064,0.917c0,0.112-0.016,0.306-0.145,0.306
				c-0.097,0-0.128-0.049-0.128-0.112c-0.018-0.145-0.018-0.321-0.049-0.499c-0.081-0.273-0.258-0.482-0.788-0.531
				c-0.258-0.031-1.867-0.063-2.222-0.063c-0.063,0-0.079,0.063-0.079,0.144v1.096c0,0.466-0.017,1.624,0,2.026
				c0.03,0.933,0.467,1.143,1.914,1.143c0.369,0,0.966-0.017,1.335-0.177c0.354-0.161,0.515-0.451,0.612-1.014
				c0.032-0.146,0.063-0.21,0.16-0.21c0.112,0,0.129,0.177,0.129,0.321c0,0.307-0.113,1.239-0.192,1.514
				c-0.097,0.354-0.226,0.354-0.757,0.354c-1.062,0-1.914-0.017-2.606-0.049c-0.692-0.017-1.223-0.032-1.641-0.032
				c-0.162,0-0.468,0.016-0.806,0.016c-0.338,0.017-0.692,0.032-0.98,0.032c-0.178,0-0.273-0.048-0.273-0.145
				c0-0.063,0.047-0.146,0.225-0.146c0.209,0,0.37-0.015,0.499-0.048c0.289-0.063,0.37-0.321,0.419-0.725
				c0.063-0.578,0.063-1.656,0.063-2.911V102.314z"/>
			<linearGradient id="SVGID_21_" gradientUnits="userSpaceOnUse" x1="141.0234" y1="103.4893" x2="153.0586" y2="103.4893">
				<stop  offset="0" style="stop-color:#292A66"/>
				<stop  offset="0.4329" style="stop-color:#292B68"/>
				<stop  offset="0.6128" style="stop-color:#282D6F"/>
				<stop  offset="0.7459" style="stop-color:#28327B"/>
				<stop  offset="0.8557" style="stop-color:#26388D"/>
				<stop  offset="0.9503" style="stop-color:#2540A4"/>
				<stop  offset="1" style="stop-color:#2445B3"/>
			</linearGradient>
			<path fill="url(#SVGID_21_)" d="M143.565,106.837c0.032,1.061,0.209,1.384,0.483,1.479c0.24,0.081,0.515,0.096,0.739,0.096
				c0.161,0,0.241,0.065,0.241,0.146c0,0.112-0.128,0.145-0.321,0.145c-0.916,0-1.577-0.048-1.834-0.048
				c-0.129,0-0.806,0.048-1.529,0.048c-0.193,0-0.321-0.016-0.321-0.145c0-0.08,0.096-0.146,0.225-0.146
				c0.193,0,0.451-0.015,0.645-0.063c0.369-0.098,0.418-0.467,0.434-1.657l0.129-8.11c0-0.273,0.098-0.466,0.241-0.466
				c0.178,0,0.371,0.209,0.611,0.45c0.178,0.178,2.302,2.35,4.361,4.361c0.966,0.948,2.848,2.88,3.056,3.072h0.066l-0.146-6.082
				c-0.018-0.837-0.146-1.078-0.483-1.206c-0.209-0.081-0.547-0.081-0.74-0.081c-0.177,0-0.225-0.064-0.225-0.146
				c0-0.111,0.144-0.128,0.354-0.128c0.74,0,1.496,0.032,1.802,0.032c0.162,0,0.692-0.032,1.384-0.032
				c0.193,0,0.322,0.017,0.322,0.128c0,0.081-0.081,0.146-0.241,0.146c-0.145,0-0.258,0-0.436,0.048
				c-0.385,0.113-0.497,0.354-0.515,1.127l-0.16,8.624c0,0.307-0.113,0.435-0.225,0.435c-0.242,0-0.436-0.145-0.58-0.289
				c-0.886-0.821-2.654-2.51-4.136-3.942c-1.544-1.48-3.041-3.138-3.314-3.38h-0.048L143.565,106.837z"/>
			<linearGradient id="SVGID_22_" gradientUnits="userSpaceOnUse" x1="157.3125" y1="103.4326" x2="167.0146" y2="103.4326">
				<stop  offset="0" style="stop-color:#292A66"/>
				<stop  offset="0.4329" style="stop-color:#292B68"/>
				<stop  offset="0.6128" style="stop-color:#282D6F"/>
				<stop  offset="0.7459" style="stop-color:#28327B"/>
				<stop  offset="0.8557" style="stop-color:#26388D"/>
				<stop  offset="0.9503" style="stop-color:#2540A4"/>
				<stop  offset="1" style="stop-color:#2445B3"/>
			</linearGradient>
			<path fill="url(#SVGID_22_)" d="M161.319,99.192l-2.107,0.049c-0.821,0.017-1.159,0.112-1.369,0.419
				c-0.145,0.193-0.208,0.369-0.241,0.466c-0.031,0.113-0.063,0.178-0.16,0.178s-0.129-0.081-0.129-0.226
				c0-0.225,0.273-1.545,0.307-1.657c0.031-0.177,0.079-0.258,0.16-0.258c0.113,0,0.258,0.113,0.611,0.161
				c0.418,0.049,0.949,0.064,1.416,0.064h5.744c0.45,0,0.756-0.032,0.965-0.064c0.226-0.031,0.338-0.064,0.387-0.064
				c0.097,0,0.112,0.081,0.112,0.29c0,0.289-0.031,1.304-0.031,1.656c-0.017,0.146-0.049,0.226-0.13,0.226
				c-0.112,0-0.145-0.063-0.16-0.273l-0.016-0.145c-0.032-0.354-0.402-0.772-1.674-0.788l-1.787-0.033v5.536
				c0,1.255,0.018,2.333,0.081,2.928c0.049,0.387,0.129,0.645,0.548,0.708c0.192,0.033,0.515,0.048,0.725,0.048
				c0.16,0,0.225,0.082,0.225,0.146c0,0.097-0.113,0.145-0.273,0.145c-0.934,0-1.883-0.048-2.285-0.048
				c-0.322,0-1.288,0.048-1.851,0.048c-0.177,0-0.273-0.048-0.273-0.145c0-0.063,0.049-0.146,0.225-0.146
				c0.21,0,0.387-0.015,0.5-0.048c0.289-0.063,0.369-0.321,0.418-0.725c0.064-0.578,0.064-1.656,0.064-2.911V99.192z"/>
			<linearGradient id="SVGID_23_" gradientUnits="userSpaceOnUse" x1="171.4121" y1="103.5293" x2="182.7236" y2="103.5293">
				<stop  offset="0" style="stop-color:#292A66"/>
				<stop  offset="0.4329" style="stop-color:#292B68"/>
				<stop  offset="0.6128" style="stop-color:#282D6F"/>
				<stop  offset="0.7459" style="stop-color:#28327B"/>
				<stop  offset="0.8557" style="stop-color:#26388D"/>
				<stop  offset="0.9503" style="stop-color:#2540A4"/>
				<stop  offset="1" style="stop-color:#2445B3"/>
			</linearGradient>
			<path fill="url(#SVGID_23_)" d="M172.844,102.314c0-2.075,0-2.461-0.016-2.896c-0.032-0.467-0.161-0.611-0.611-0.741
				c-0.112-0.032-0.354-0.048-0.563-0.048c-0.145,0-0.241-0.049-0.241-0.146c0-0.096,0.112-0.128,0.321-0.128
				c0.74,0,1.642,0.032,1.932,0.032c0.482,0,1.77-0.032,2.204-0.032c0.901,0,1.931,0.081,2.687,0.579
				c0.402,0.274,0.997,0.966,0.997,1.883c0,1.015-0.578,1.914-1.963,3.025c1.257,1.544,2.253,2.783,3.106,3.636
				c0.788,0.788,1.286,0.853,1.513,0.901c0.145,0.031,0.225,0.031,0.337,0.031c0.114,0,0.178,0.082,0.178,0.146
				c0,0.112-0.097,0.145-0.273,0.145h-1.352c-0.788,0-1.176-0.08-1.546-0.273c-0.61-0.305-1.142-0.949-1.93-2.01
				c-0.563-0.742-1.159-1.658-1.336-1.868c-0.081-0.08-0.16-0.097-0.258-0.097l-1.271-0.031c-0.064,0-0.113,0.031-0.113,0.112v0.193
				c0,1.271,0.017,2.333,0.081,2.911c0.048,0.403,0.113,0.661,0.547,0.725c0.21,0.033,0.515,0.048,0.692,0.048
				c0.113,0,0.177,0.082,0.177,0.146c0,0.097-0.113,0.145-0.29,0.145c-0.819,0-1.995-0.048-2.203-0.048
				c-0.274,0-1.176,0.048-1.738,0.048c-0.178,0-0.273-0.048-0.273-0.145c0-0.063,0.047-0.146,0.225-0.146
				c0.209,0,0.37-0.015,0.5-0.048c0.288-0.063,0.369-0.321,0.418-0.725c0.063-0.578,0.063-1.656,0.063-2.911V102.314z
				 M174.646,103.377c0,0.145,0.033,0.193,0.129,0.241c0.306,0.097,0.725,0.128,1.078,0.128c0.563,0,0.757-0.048,0.998-0.225
				c0.435-0.306,0.917-0.9,0.917-2.027c0-1.931-1.319-2.429-2.156-2.429c-0.354,0-0.692,0.015-0.837,0.048
				c-0.096,0.031-0.129,0.079-0.129,0.192V103.377z"/>
			<linearGradient id="SVGID_24_" gradientUnits="userSpaceOnUse" x1="185.6738" y1="103.4902" x2="193.1553" y2="103.4902">
				<stop  offset="0" style="stop-color:#292A66"/>
				<stop  offset="0.4329" style="stop-color:#292B68"/>
				<stop  offset="0.6128" style="stop-color:#282D6F"/>
				<stop  offset="0.7459" style="stop-color:#28327B"/>
				<stop  offset="0.8557" style="stop-color:#26388D"/>
				<stop  offset="0.9503" style="stop-color:#2540A4"/>
				<stop  offset="1" style="stop-color:#2445B3"/>
			</linearGradient>
			<path fill="url(#SVGID_24_)" d="M187.105,102.314c0-2.075,0-2.461-0.016-2.896c-0.032-0.467-0.16-0.611-0.611-0.741
				c-0.112-0.032-0.354-0.048-0.563-0.048c-0.145,0-0.241-0.049-0.241-0.146c0-0.096,0.112-0.128,0.321-0.128
				c0.741,0,1.641,0.032,2.044,0.032c0.45,0,3.588,0.016,3.861,0c0.258-0.016,0.482-0.064,0.596-0.081
				c0.08-0.015,0.16-0.063,0.225-0.063c0.082,0,0.097,0.063,0.097,0.129c0,0.097-0.081,0.257-0.111,0.885
				c-0.018,0.145-0.05,0.74-0.081,0.9c-0.017,0.064-0.049,0.225-0.162,0.225c-0.096,0-0.111-0.063-0.111-0.177
				c0-0.096-0.017-0.338-0.097-0.498c-0.113-0.241-0.225-0.435-0.934-0.498c-0.242-0.033-1.932-0.065-2.221-0.065
				c-0.063,0-0.097,0.048-0.097,0.129v3.379c0,0.08,0.016,0.145,0.097,0.145c0.322,0,2.156,0,2.479-0.031
				c0.337-0.033,0.547-0.064,0.676-0.209c0.112-0.098,0.16-0.178,0.225-0.178c0.065,0,0.113,0.064,0.113,0.146
				c0,0.08-0.033,0.306-0.113,0.997c-0.031,0.273-0.064,0.82-0.064,0.917c0,0.112-0.016,0.306-0.145,0.306
				c-0.097,0-0.129-0.049-0.129-0.112c-0.016-0.145-0.016-0.321-0.048-0.499c-0.08-0.273-0.257-0.482-0.788-0.531
				c-0.258-0.031-1.867-0.063-2.221-0.063c-0.065,0-0.081,0.063-0.081,0.144v1.096c0,0.466-0.015,1.624,0,2.026
				c0.033,0.933,0.467,1.143,1.915,1.143c0.37,0,0.966-0.017,1.336-0.177c0.354-0.161,0.515-0.451,0.611-1.014
				c0.031-0.146,0.063-0.21,0.16-0.21c0.113,0,0.129,0.177,0.129,0.321c0,0.307-0.112,1.239-0.192,1.514
				c-0.097,0.354-0.227,0.354-0.757,0.354c-1.062,0-1.914-0.017-2.606-0.049c-0.691-0.017-1.223-0.032-1.641-0.032
				c-0.162,0-0.467,0.016-0.805,0.016c-0.339,0.017-0.691,0.032-0.982,0.032c-0.177,0-0.273-0.048-0.273-0.145
				c0-0.063,0.049-0.146,0.226-0.146c0.209,0,0.37-0.015,0.499-0.048c0.29-0.063,0.37-0.321,0.418-0.725
				c0.064-0.578,0.064-1.656,0.064-2.911V102.314z"/>
		</g>
		<g>
			<rect x="2.934" y="88.104" fill="#292A66" width="194.467" height="0.476"/>
		</g>
		<g>
			<rect x="2.934" y="47.18" fill="#292A66" width="194.467" height="0.476"/>
		</g>
	</g>
</g>
</svg>
